# xmcd CD database file
#
# Track frame offsets:
#	150
#	20499
#	56570
#	86254
#	105930
#	136821
#	151438
#	177155
#	192438
#	208847
#	223158
#	249788
#
# Disc length: 3728 seconds
#
# Revision: 0
# Processed by: cddbd v1.5.1PL2 Copyright (c) Steve Scherf et al.
# Submitted via: CDex 1.51
#
DISCID=9c0e8e0c
DTITLE=Bobby Hacket Quartet - Butterfly Airs
DYEAR=1964
DGENRE=Jazz
TTITLE0=The Good Life
TTITLE1=Take the "A" Train
TTITLE2=You Stepped Out Of a Dream
TTITLE3=Satin Doll
TTITLE4=How High the Moon
TTITLE5=Poinciana
TTITLE6=Sweet Georgia Brown
TTITLE7=You Do Something to Me
TTITLE8=As Long As He Neds Me
TTITLE9=I Left My heart in San Francisco
TTITLE10=Exactly Like You
TTITLE11=Perdido
EXTD=YEAR: 1964
EXTT0=
EXTT1=
EXTT2=
EXTT3=
EXTT4=
EXTT5=
EXTT6=
EXTT7=
EXTT8=
EXTT9=
EXTT10=
EXTT11=
PLAYORDER=
